<?xml version="1.0" encoding="utf-8"?>
<!-- Generator: Adobe Illustrator 16.0.0, SVG Export Plug-In . SVG Version: 6.00 Build 0)  -->
<!DOCTYPE svg PUBLIC "-//W3C//DTD SVG 1.1//EN" "http://www.w3.org/Graphics/SVG/1.1/DTD/svg11.dtd">
<svg version="1.1" id="Layer_1" xmlns="http://www.w3.org/2000/svg" xmlns:xlink="http://www.w3.org/1999/xlink" x="0px" y="0px"
	 width="851px" height="315px" viewBox="0 0 851 315" enable-background="new 0 0 851 315" xml:space="preserve">
<rect fill="#FFFFFF" width="851" height="315"/>
<g>
	<path fill="#33481F" d="M411.527,310.832c-0.138-0.067-0.166-0.094-0.264-0.188l-0.096-0.088c-0.247-0.226-0.656-0.628-1.204-1.251
		c-1.015-1.152-2.374-2.838-3.569-4.327c-2.372-2.957-4.332-5.504-4.701-5.983l-0.604-0.785l-0.603,0.785
		c-0.37,0.481-2.331,3.029-4.701,5.983c-1.195,1.489-2.557,3.175-3.57,4.327c-0.549,0.626-0.957,1.025-1.204,1.249l-0.095,0.09
		c-0.102,0.098-0.128,0.122-0.215,0.164l-0.098,0.006l-1.529-0.146l0.737-0.57l0.684,0.433c-0.032-0.078-0.091-0.216-0.197-0.369
		c-0.172-0.249-0.423-0.558-0.709-0.868c-0.617-0.676-1.494-1.485-2.188-2.119c-1.559-1.417-3.127-2.721-3.143-2.733l-0.016-0.013
		l10.936-8.043l-4.318-2.015l2.308-2.591l7.922,3.392l7.925-3.392l2.307,2.591l-4.316,2.015l10.935,8.043l-0.009,0.006
		c-0.021,0.02-1.59,1.325-3.147,2.74c-0.695,0.632-1.571,1.443-2.19,2.119c-0.285,0.311-0.537,0.621-0.71,0.868
		c-0.104,0.153-0.162,0.293-0.189,0.358l0.678-0.422l0.735,0.57l-1.498,0.141l-0.069,0.018L411.527,310.832z M431.269,298.635
		c-8.3,0-13.952-3.725-14.138-3.847c7.21-3.425,13.454-5.156,18.558-5.156h0.088c4.307,0.018,6.973,1.314,8.451,2.398
		c1.482,1.089,2.132,2.251,2.194,2.364l-0.007,0.002c-4.889,2.821-9.981,4.242-15.144,4.242L431.269,298.635z M370.919,298.635
		c-5.16,0-10.256-1.426-15.146-4.238l-0.005-0.002l0.002-0.007c0,0,0.64-1.22,2.191-2.357c1.477-1.084,4.143-2.381,8.451-2.398
		h0.089c5.102,0,11.344,1.734,18.556,5.156c-0.244,0.159-5.905,3.847-14.135,3.847l0.008,0.009L370.919,298.635z M453.621,293.68
		c-0.835,0-1.551-0.422-1.784-1.052c-0.229-0.617-0.157-1.402,0.209-2.336c0.605-1.539,2.018-3.157,3.803-3.302
		c0.035-0.002,0.07-0.002,0.106-0.002l0.243,0.004c0.384,0.011,0.794,0.105,1.188,0.27v0.002c0,0.004,0.135,1.603-0.267,3.208
		c-0.235,0.938-0.586,1.657-1.082,2.19c-0.602,0.656-1.454,1.021-2.414,1.021L453.621,293.68z M348.557,293.68
		c-0.953,0-1.81-0.361-2.412-1.015c-0.495-0.538-0.85-1.253-1.084-2.191c-0.384-1.537-0.279-3.063-0.267-3.212
		c0.399-0.167,0.809-0.259,1.188-0.268l0.085-0.002c1.911,0,3.418,1.658,4.064,3.3c0.366,0.937,0.436,1.722,0.21,2.336
		c-0.229,0.618-0.946,1.045-1.783,1.045L348.557,293.68z M414.275,289.111c8.655-16.388,17.65-18.156,21.113-18.156
		c1.168,0.004,1.943,0.19,2.084,0.228l0.008,0.039c0,0.004,0.519,3.63-2.011,7.551c-2.372,3.676-7.975,8.454-21.189,10.341
		l-0.011,0.002L414.275,289.111z M387.904,289.118c-13.218-1.888-18.819-6.665-21.19-10.339c-2.531-3.921-2.012-7.547-2.005-7.584
		l0.002-0.009l0.01-0.004c0.004,0,0.808-0.217,2.023-0.224c3.518,0,12.51,1.77,21.163,18.152l0.006,0.011l-0.015-0.009
		L387.904,289.118z M441.372,286.5c-2.633-0.002-5.582-0.216-8.772-0.643h-0.008l0.005-0.004c7.006-6.788,13.642-8.212,17.976-8.212
		c0.339,0.003,0.631,0.011,0.924,0.024c3.445,0.164,5.756,1.188,5.911,1.257c-0.008,0.075-0.078,0.739-0.451,1.54
		c-0.384,0.822-1.181,2.036-2.807,3.143c-2.832,1.92-7.131,2.895-12.774,2.895l-0.008,0.009L441.372,286.5z M360.815,286.5
		c-5.646-0.002-9.945-0.975-12.777-2.897c-1.628-1.104-2.424-2.315-2.806-3.142c-0.359-0.771-0.439-1.413-0.453-1.54
		c0.149-0.069,2.46-1.096,5.912-1.255c0.292-0.016,0.585-0.024,0.894-0.024c4.365,0,11,1.424,18.003,8.207l0.006,0.007h-0.009
		c-3.196,0.42-6.151,0.641-8.777,0.641L360.815,286.5z M468.246,285.448c-3.238-0.052-5.528-0.568-6.81-1.535
		c-0.604-0.457-0.907-1.069-0.803-1.638c0.12-0.678,0.664-1.375,1.656-2.119c2.713-2.033,6.733-3.111,11.951-3.203
		c0.335-0.005,0.676-0.009,1.011-0.009c0.289,0,0.578,0.002,0.861,0.009c6.229,0.153,11.767,1.559,11.821,1.57l0.015,0.004
		l-0.012,0.014c-5.096,5.095-13.275,6.912-19.229,6.912h-0.457L468.246,285.448z M333.475,285.448
		c-5.953,0-14.133-1.817-19.233-6.919l-0.005-0.006l0.015-0.005c0.054-0.013,5.589-1.419,11.818-1.57
		c0.372-0.009,0.746-0.013,1.123-0.013c5.582,0,9.855,1.082,12.702,3.217c0.994,0.746,1.536,1.438,1.657,2.119
		c0.102,0.568-0.198,1.181-0.805,1.638c-1.282,0.967-3.572,1.482-6.81,1.533l-0.457,0.017L333.475,285.448z M488.004,275.552
		c-0.7,0-1.221-0.466-1.371-0.928c-0.185-0.566-0.142-1.223,0.138-2.005c0.27-0.764,0.724-1.477,1.282-2.017
		c0.419-0.4,1.095-0.883,1.914-0.883c0.399,0.013,0.715,0.08,0.988,0.212c0.005,0.072,0.092,1.426-0.222,2.81
		c-0.189,0.842-0.458,1.452-0.843,1.92c-0.465,0.556-1.156,0.884-1.891,0.884L488.004,275.552z M314.183,275.552
		c-0.731,0-1.421-0.324-1.887-0.889c-0.385-0.468-0.653-1.077-0.843-1.92c-0.319-1.408-0.223-2.783-0.222-2.799l0.001-0.013
		c0.277-0.132,0.586-0.201,0.926-0.21h0.002c0.881,0,1.552,0.48,1.971,0.881c0.558,0.538,1.015,1.253,1.285,2.017
		c0.278,0.782,0.323,1.438,0.138,2.005c-0.153,0.448-0.671,0.921-1.372,0.921L314.183,275.552L314.183,275.552z M443.442,274.546
		c-0.836,0-1.552-0.42-1.784-1.05c-0.229-0.617-0.16-1.402,0.209-2.336c0.605-1.541,2.017-3.157,3.803-3.302
		c0.033-0.005,0.068-0.005,0.104-0.005l0.243,0.007c0.386,0.011,0.793,0.105,1.189,0.27l0,0c0,0.004,0.136,1.603-0.268,3.21
		c-0.234,0.938-0.588,1.655-1.082,2.191C445.254,274.187,444.394,274.546,443.442,274.546L443.442,274.546z M358.745,274.546
		c-0.956,0-1.812-0.361-2.414-1.015c-0.493-0.536-0.847-1.254-1.083-2.191c-0.384-1.535-0.278-3.063-0.267-3.21
		c0.4-0.167,0.808-0.259,1.189-0.27l0.084-0.002c1.911,0,3.419,1.657,4.063,3.302c0.366,0.934,0.438,1.721,0.209,2.336
		c-0.229,0.625-0.951,1.043-1.781,1.043L358.745,274.546z M337.039,273.648c-11.98-0.422-18.199-3.828-21.304-6.61
		c-1.75-1.567-2.723-3.12-3.228-4.146c-0.48-0.971-0.661-1.713-0.692-1.856l0.017-0.007c0.002,0,1.134-0.407,2.958-0.441l0.28-0.005
		c4.041,0,12.267,1.699,21.967,13.06v0.009L337.039,273.648z M465.147,273.641c9.411-11.023,17.454-12.911,21.411-13.058
		c0.118-0.004,0.234-0.007,0.35-0.007c0.161,0,0.319,0.005,0.469,0.007c1.769,0.035,2.881,0.409,2.994,0.448v0.002
		c-0.001,0-0.169,0.79-0.692,1.854c-0.507,1.028-1.476,2.581-3.228,4.146c-3.107,2.781-9.326,6.188-21.307,6.61l0.008-0.009
		L465.147,273.641z M350.05,272.438c-9.638-1.47-15.1-5.606-17.984-8.819c-3.023-3.372-3.929-6.508-3.969-6.652
		c0.017-0.006,1.195-0.312,2.968-0.356c0.129-0.004,0.263-0.006,0.399-0.006c0.138,0,0.278,0.002,0.421,0.006
		c4.848,0.105,13.654,2.303,18.162,15.826h0.008L350.05,272.438z M452.137,272.438c4.509-13.527,13.316-15.723,18.164-15.83
		c0.144-0.004,0.284-0.007,0.422-0.007c0.137,0,0.27,0.003,0.397,0.007c1.773,0.044,2.954,0.353,2.963,0.356h0.008
		c-0.008,0.024-0.89,3.222-3.971,6.652c-2.893,3.212-8.352,7.354-17.99,8.816L452.137,272.438z M501.624,267.809
		c-5.363,0-9.186-1.067-9.222-1.081l-0.011-0.002l0.012-0.018c0.033-0.05,4.192-6.103,12.214-7.71c2.098-0.418,4.292-0.63,6.52-0.63
		c0.186,0,0.37,0.002,0.552,0.004c4.617,0.07,7.954,1.009,7.987,1.02l0.01,0.03c-0.002,0,0.037,0.348-0.027,0.785
		c-0.07,0.443-0.26,1.14-0.785,1.931c-0.929,1.396-3.094,3.322-8.14,4.584c-2.87,0.724-5.933,1.089-9.09,1.089L501.624,267.809z
		 M300.563,267.809c-3.159,0-6.225-0.363-9.107-1.087c-5.047-1.262-7.212-3.188-8.14-4.584c-0.527-0.791-0.719-1.484-0.785-1.931
		c-0.064-0.424-0.03-0.761-0.024-0.815l0.024-0.009c0.013-0.002,3.35-0.94,7.967-1.011c0.182-0.004,0.365-0.004,0.552-0.004
		c2.227,0,4.42,0.21,6.519,0.63c8.021,1.604,12.181,7.66,12.222,7.719l0.003,0.007l-0.01,0.004
		c-0.046,0.007-3.867,1.081-9.227,1.081H300.563z M479.249,259.678c-0.832,0-1.523-0.413-1.761-1.05
		c-0.233-0.63-0.171-1.408,0.186-2.309c0.607-1.542,2.019-3.16,3.802-3.305c0.033-0.002,0.069-0.004,0.107-0.004l0.242,0.006
		c0.385,0.012,0.796,0.104,1.188,0.27v0.002c0,0.004,0.135,1.583-0.265,3.184c-0.244,0.965-0.596,1.69-1.085,2.218
		c-0.591,0.647-1.446,0.997-2.41,0.997L479.249,259.678z M322.938,259.678c-0.967,0-1.824-0.352-2.416-0.993
		c-0.486-0.526-0.84-1.25-1.081-2.217c-0.385-1.533-0.278-3.046-0.266-3.187c0.399-0.168,0.808-0.26,1.188-0.269l0.085-0.002
		c1.908,0,3.417,1.659,4.064,3.304c0.356,0.903,0.418,1.68,0.185,2.31c-0.235,0.639-0.928,1.05-1.758,1.05h-0.002V259.678
		L322.938,259.678z M306.114,257.371c-0.072-0.02-4.551-1.17-9.112-3.98c-4.22-2.596-9.383-7.194-10.012-14.336v-0.002l0.01-0.003
		c0.001,0,0.394-0.096,0.973-0.117c0.079-0.003,0.164-0.005,0.254-0.005c1.261,0,3.842,0.354,6.964,2.731
		c3.976,3.03,7.644,8.313,10.926,15.721L306.114,257.371z M496.074,257.371c3.278-7.407,6.951-12.694,10.924-15.714
		c2.812-2.139,5.174-2.662,6.66-2.725c0.094-0.005,0.181-0.007,0.265-0.007c0.104,0,0.202,0.002,0.296,0.007
		c0.577,0.023,0.966,0.115,0.981,0.12l-0.001,0.013c-0.629,7.133-5.793,11.729-10.011,14.325c-4.553,2.795-9.023,3.952-9.121,3.976
		L496.074,257.371z M317.099,256.966c-0.028-0.011-3.22-1.288-7.208-4.631c-3.716-3.114-8.941-8.726-12.726-17.761
		c0.002-0.003,0.868-0.464,2.198-0.547c0.075-0.007,0.154-0.007,0.232-0.007c0.114,0,0.232,0.002,0.351,0.007
		c1.837,0.05,4.633,0.815,7.73,4.159c3.56,3.844,6.738,10.155,9.444,18.769l0.009,0.024l-0.024-0.009L317.099,256.966z
		 M485.072,256.942c2.702-8.599,5.88-14.912,9.442-18.756c3.099-3.342,5.895-4.106,7.694-4.157c0.157-0.004,0.273-0.009,0.388-0.009
		c0.08,0,0.155,0.002,0.232,0.007c1.271,0.079,2.121,0.505,2.199,0.549c-3.786,9.035-9.009,14.645-12.728,17.761
		c-3.987,3.341-7.181,4.62-7.21,4.634l-0.026,0.009L485.072,256.942L485.072,256.942z M513.554,256.138
		c-1.395,0-2.298-0.312-2.687-0.93c-0.49-0.78,0.105-1.784,0.3-2.073c0.979-1.454,3.263-2.924,6.154-2.924l0.124,0.003
		c0.605,0.009,1.236,0.089,1.823,0.238l0.005,0.006c0.003,0.022,0.189,1.42-0.42,2.83
		C518.477,254.141,517.222,256.138,513.554,256.138L513.554,256.138L513.554,256.138z M288.634,256.138
		c-3.67,0-4.927-1.99-5.297-2.848c-0.607-1.408-0.423-2.81-0.421-2.823l0.002-0.015c0.593-0.149,1.221-0.232,1.825-0.241h0.125
		c2.893,0,5.176,1.47,6.155,2.924c0.195,0.289,0.791,1.29,0.297,2.073C290.924,255.825,290.026,256.138,288.634,256.138
		L288.634,256.138z M521.686,245.882c-2.17,0-3.594-0.138-3.607-0.141l-0.004-0.002c0.002-0.018,0.079-2.691,2.441-5.268
		c2.226-2.425,7-5.38,17.114-5.677h0.008l-0.001,0.016c-0.003,0.011-0.304,2.324-1.368,4.747c-0.979,2.226-2.832,5.006-6.102,5.601
		c-3.296,0.583-6.425,0.717-8.48,0.717L521.686,245.882z M280.502,245.882c-2.05,0-5.187-0.125-8.482-0.722
		c-3.269-0.595-5.123-3.377-6.1-5.601c-1.066-2.425-1.366-4.738-1.369-4.763h0.009c10.113,0.298,14.888,3.25,17.113,5.677
		c2.297,2.504,2.434,5.106,2.44,5.271h-0.006c-0.017,0-1.439,0.138-3.61,0.138H280.502z M511.148,235.361
		c-0.007-0.057-0.567-5.788-0.567-11.487c0-5.692,6.067-7.969,6.326-8.062l0.009-0.002c-0.016,0.113-0.295,2.077-0.572,4.38
		c-0.214,1.791-0.578,5.021-0.578,6.562c0,1.59-1.105,3.531-2.305,5.393c-1.142,1.773-2.297,3.199-2.308,3.217l-0.009,0.009
		l0.01-0.009H511.148z M291.031,235.361c-0.013-0.02-1.169-1.445-2.308-3.219c-1.197-1.863-2.306-3.806-2.306-5.395
		c0-1.535-0.36-4.77-0.576-6.561c-0.273-2.272-0.549-4.219-0.572-4.383l0.01,0.005c0.256,0.092,6.324,2.368,6.324,8.061
		c0,5.703-0.561,11.432-0.566,11.489l-0.001,0.009h-0.008L291.031,235.361z M519.021,234.819c-0.122,0-0.233-0.022-0.33-0.068
		c-0.114-0.057-0.231-0.194-0.294-0.343c-0.146-0.356-0.117-0.755-0.002-1.356c0.195-1.056,0.683-2.449,1.54-4.373
		c1.361-3.066,3.11-6.22,3.284-6.523l0.021-0.021c0.022-0.031,2.427-3.055,5.479-6.07c1.771-1.747,3.435-3.158,4.942-4.199
		c1.908-1.313,3.383-1.935,4.647-1.959h0.008c0.415,0,0.747,0.053,1.048,0.151l0.01,0.006l0.001,0.007c0,0,0.278,2.458,0.067,5.445
		c-0.287,4.01-1.283,7.017-2.954,8.931c-1.838,2.097-4.978,4.474-8.847,6.691c-3.484,1.998-6.637,3.372-8.43,3.669
		c-0.062,0-0.12,0.007-0.19,0.007v0.007H519.021z M283.167,234.819c-0.064,0-0.127-0.005-0.19-0.016
		c-1.795-0.302-4.945-1.671-8.43-3.667c-3.87-2.218-7.012-4.595-8.848-6.694c-1.673-1.913-2.667-4.918-2.953-8.931
		c-0.203-2.845,0.041-5.215,0.065-5.451c0.314-0.104,0.647-0.155,1.003-0.155c1.343,0.021,2.775,0.628,4.711,1.959
		c1.509,1.039,3.172,2.452,4.942,4.199c3.054,3.011,5.457,6.039,5.48,6.068l0.025,0.03c0.201,0.358,1.931,3.477,3.279,6.515
		c0.855,1.929,1.345,3.316,1.541,4.373c0.111,0.602,0.144,0.999-0.003,1.355c-0.061,0.149-0.178,0.287-0.293,0.344
		c-0.107,0.046-0.213,0.067-0.334,0.067L283.167,234.819L283.167,234.819z"/>
	<g>
		<g>
			<g>
				<defs>
					<path id="SVGID_1_" d="M612.543,4.185L610.748,4.9l-0.703,0.279l-2.17-0.118l-2.035,0.978l-3.609,2.465l-0.161,0.114
						l-1.344,0.35l-1.248-0.538l-0.71,0.324l-0.247,1.463l-0.676,1.051l-0.831,0.583l-2.88,0.295l-2.428,1.251l-3.158-0.846
						l-1.47,0.576l-3.12,2.812l-1.595,0.755l-0.557-0.031l-2.116-0.109l-0.892,0.293l-1.334,1.288l-2.525,0.197l-0.785,0.543
						l-1.232,2.482l-1.334,1.376l-0.765,0.162l-0.827-0.304l-0.623,0.111l-0.283,1.588l-0.601,0.666l-1.691,0.583l-1.351,1.125
						l-1.186,0.608l-1.586-0.04h-0.364l-1.581,0.873l-2.971,0.26l-1.236,1.179l-0.272,0.253l-0.577,0.349l-0.943,0.565l-0.232,0.14
						l-1.141-0.205l-1.329,0.528l-0.539-0.827l-0.923,0.552l-1.221,0.054l-1.52-0.676l-1.158-0.517l-0.848,0.122l-0.297,1.476
						l-0.027,0.158l-0.891,1.186l-1.663,1.008l-0.227,0.294l-1.89,2.444l-3.595,3.781l-3.042,1.544l-3.148,0.957l-2.206,1.812
						l-5.785,2.869l-9.132,4.544l-1.867,0.598l-2.683,0.429l-4.779,1.759l-4.219,1.273l-0.235,0.069l-0.832,0.255l-5.948,1.798
						l-2.768-0.293l-1.639,0.595l-4.269-0.474l-2.965,0.06l-1.88,0.391l-3.528,1.693l-5.959,2.866l-1.969,1.8l-3.066,1.6
						l-3.589,1.139l0.008-1.509l-0.021-0.066l-1.245,0.396l-0.899,0.284l-2.914,0.449h-1.618l-1.006-0.293l-0.155,0.052
						l-5.952,1.962l-6.639,0.641l-3.321,1.064l-2.484-0.039l-1.551,0.461l-3.042,0.372l-1.087-0.291l-0.247-0.068l-8.943,0.39
						l-4.091-0.462l-1.951,0.444l-3.271-1.102l-4.775-0.553l-1.115-0.334l-2.507-0.744l-1.136,0.653l-0.849,0.091l-2.03-0.736
						l-0.731-0.02l-1.676,0.605l-0.963-0.248l-0.896-0.714l-2.104-0.313l-1.28-1.076l-7.158,0.949l-1.942-0.571l-6.512-1.897
						l-1.037,0.054l-1.292,0.968l-1.938,0.706l-1.684,0.439l-2.294,0.079l-2.662-0.698l-2.746-1.33l-1.015-0.242l-2.265,0.229
						l-0.691,0.063l-4.162-2.232l-5.362-3.351l-3.636-1.749l-1.367-0.222l-0.184,0.649l0.678,2.136l0.23,2.113l-0.07,1.95
						l-0.037,1.208l0.341,1.086l1.313,1.455l0.548,1.463l0.399,4.023l-0.004,4.082l-0.639,6.51l-0.214,0.991l-0.763,3.374
						l-0.695,3.099l-2.699,8.248l-0.742,1.021l-1.82,1.24l-4.127,2.809l-3.038,1.752l-0.96,0.396l-2.466,0.186l-1.536-0.079
						l-1.914-1.036l-1.878-0.484l-2.46-1.769l-2.737-0.566l-3.001-1.735l-0.781-0.939l-1.633-0.153l-2.266-0.68l0.002-0.005
						l-0.832-0.249l-0.576-0.166l0,0l-2.89-0.081l-2.694-1.241l-1.42-0.344l-1.938-0.099l-2.029,0.942l-0.001-0.002l-1.028,0.479
						l-1.3-0.517l-0.94,0.06l-1.065,1.61l-0.16,0.25l-0.734,0.389l-0.912-0.013l-0.716-0.021l-0.773,0.331l-1.042,0.45v0.002
						l-0.918,0.401l-0.449,0.195l-0.008-0.008l-0.277,0.054l-0.491,0.086l-0.609,0.116l-1.074-0.628l-0.571-0.338l-0.957-0.194
						l-0.515,0.373l-0.103,1.75l-0.47,1.05l-1.493,1.321l-1.517,1.336l-1.057,1.559l-2.799,6.387l-1.753,2.578l-0.543,0.601
						l-1.833,2.023l-1.627,1.262l-3.748,2.905l-3.547,1.327l-3.055,0.624l-1.486,0.006l-2.813-0.374l-2.531-0.775l-2.778-1.738
						l-3.047-2.449l-4.412-4.357l-0.624-0.377l-0.13-0.085l-1.39-0.89l-1.03,0.027l-0.403,0.665l-0.22,0.961l-0.187,0.854
						l-0.505,4.846l0.037,0.282l0.265,1.996l3.35,4.683l1.034,2.487l0.169,0.286l0.691,1.159l0.527,0.886l0.052,0.09l1.145,3.417
						l-0.806,1.929l0.407,1.293l-1.018,0.789l-0.186,1.113l3.009,3.771l0.656,1.662l-0.732,2.308l-1.17,1.272l-0.327,0.349
						l0.165,0.976l1.383,1.243l2.353,2.093l1.252,3.11l0.956,0.835l1.108-0.236l0.617,0.471l0.935-0.016l0.919,0.919l0.595,0.288
						l0.941,0.471l0.745,0.966l0.163,2.977l1.387,3.702l0.021,2.008l0.007,0.284l0.864,1.482l0.271,1.172l-0.46,3.097l1.099,0.997
						l1.193-0.245l0.77,0.12l1.238,1.032l1.499,2.285l1.467-0.216l0.93,0.448l4.494,4.062l1.019,0.514l0.057,0.031l0.732,0.367
						l0.911,0.918l1.413-0.938l0.158-0.016l1.536-0.136l0.675,0.455l1.297,0.872l1.702-0.021l3.688,1.133l1.612,0.413l3.244,2.014
						l1.379,0.855l0.817,0.662l1.084,0.884l2.166,0.934l1.858,0.442l1.006,0.24l0.757,0.293l0.019-0.048l0.012,0.004l-0.02,0.048
						l4.024,1.54l2.178,0.507l2.015,0.741l1.468,0.538l1.077,0.018l1.523-1.281l1.473-0.083l1.226,0.304l1.195-0.201l1.892-1.165
						l0.37-0.547l1.34-0.639l4.525-0.562l1.323,0.431l3.395-1.479l2.274,0.632l2.014-0.715l4.4,0.978l1.17,0.822l1.307,1.495
						l0.161,0.009l1.456,0.026l-0.608,1.013l1.921,2.016l1.735,2.625l0.117,0.348l1.261,3.702l0.938,1.313l0.656,1.831l0.033,1.191
						l-1.02,0.778l-0.167,0.444l-0.057,0.164l0.207,0.496l0.385-0.21l0.734-0.404l0.888-0.138l1.572,0.166l1.039,0.111l1.64-0.815
						l1.087-0.54l1.746,0.752l1.919-0.021l0.806,0.356l2.28,1.034l1.165,0.111l0.43-0.284l0.274-0.651l-0.141-0.757l-0.872-1.008
						l-1.926-2.235l-0.79-1.15l-0.6-1.664l-0.187-2.125l-0.132-1.435l0.241-1.888l0.517-0.673l0.38-1.501h0.008l0.097-0.391
						l1.07-1.422l2.835-1.821l3.046-2.729l2.408-1.587l2.482-1.076l0.065-0.302l0.277,0.111l6.314-2.146l0.104-0.013l2.811-0.49
						l18.972,1.334l0.704-0.21l0.002-0.004l0.631-1.775l0.342-0.328l0.226-0.215l2.085-0.918l0.975-0.138l2.708,0.667l1.108,0.273
						l1.775-0.995l1.26,0.021l2.602-1.421l1.607,0.039l0.61-0.245l3.131-2.248l3.016-0.865l0.785-0.416l0.275-0.153l3.091-1.631
						l1.964-1.509l1.694-0.901l1.856-0.48l4.857-0.344l0.977-1.627l2.089-0.277l1.262-1.422l1.443-0.586l1.035-1.491l0.867-1.249
						l1.212-0.701l3.882-0.243l4.601,0.568l0.608-0.367l1.042-3.711l1.088-0.697l2.933-4.271l0.01-1.56l0.003-1.299l0.484-1.852
						l-0.328-3.341l0.389-3.385l1.822-4.302l1.606-1.736l2.589-1.75l1.316-0.574l1.864-0.313v-0.006l0.274-0.046l0.475-0.081
						l6.422-0.087c0.088-0.068,2.334-0.033,2.334-0.033l2.141-0.026l5.417,0.962l0.385,0.069l1.831,0.593l2.112,1.642l2.236,2.183
						l0.418,0.408l1.449,0.607l0.438,0.194l1.195-0.194l1.702-0.886l1.284-1.086l1.75-0.957l0.044-0.061l0.985-1.483l0.029-0.029
						l0.021,0.005l0.002-0.009l-0.016-0.003l0.388-0.591l3.387-1.318l3.981-0.231l0.447-0.242l0.25-0.133l1.051-1.236l0.986-0.01
						l2.387,0.863l1.679-0.332l1.33,0.532l1.037-0.121l1.95-0.231l2.098,1.475l1.224,0.157l4.308,2.519l0.225,0.037l0.115,0.022
						l0.247,0.039l0.511-0.153l0.762-0.219l0.102-0.028l0.095,0.132l0.489,0.69l0.674,0.097l0.795-1.06l-0.316-0.482l-0.116-0.175
						l-1.538-0.312l-1.383-2.361l1.315-1.417l-2.064-2.533l-0.343-0.419l-0.117-0.179l-0.713-1.084l-3.616-5.508l-4.705-3.757
						l-0.003,0.004l-1.647-1.319l-0.012-0.01l-0.579-0.454l-2.512-2.556l-1.797-2.384l-0.235-0.513l-0.37-0.81l-1.076-2.344
						l-1.875-1.443l-1.526-1.667l-0.074-0.099l-3.15-4.283l-0.518-0.719l-0.745-0.43l-1.572-0.012l-0.148-0.149l-0.088-0.093
						l0.054-0.057l0.755-0.751l0.841-0.21l0.362-0.828l-1.605-4.646l-0.012-0.164l-0.119-1.481l1.31-6.742l0.166-0.821l2.229-4.535
						l1.38-1.133l1.509-2.962l1.29-1.895l1.236-1.204l0.216-0.127l2.232-1.353l1.878-0.262l1.789-0.255l3.119,0.962l2.97-0.059
						l0.581-0.062l1.346-0.154l2.215-0.699l1.048-0.646l0.542-0.832l1.133-3.797l0.363-1.208l0.698-1.312l4.039-4.65l3.054-2.823
						l6.867-5.034l3.362-2.01l1.715-1.025l15.324-6.812l3.982-4.035l2.075-2.098l3.67-2.464l4.295-1.759l3.696-2.924l0.808-1.015
						l1.017-3.277l0.849-0.206l0.766-1.655l0.217-0.471l3.015-2.125l0.343-0.168l11.715-5.87l1.704,0.234l0.909-1.366l3.408-0.573
						l0.629-0.106l0.841-0.42l0.716-1.217v-0.241l0.099-3.253l0.726-0.88l0.396-2.144l0.374-0.492l0.392-0.517l0.964-0.678
						l-0.166-0.401L612.543,4.185z"/>
				</defs>
				<clipPath id="SVGID_2_">
					<use xlink:href="#SVGID_1_"  overflow="visible"/>
				</clipPath>
				<g clip-path="url(#SVGID_2_)">
					<polygon fill="#B4B4B4" points="415.51,-110.047 198.31,-33.609 232.63,250.961 415.74,351.604 599.797,249.602 
						634.105,-34.962 					"/>
					<polygon fill="#A51E22" points="612.441,-18.517 415.002,-85.846 415.002,327.559 580.466,235.986 					"/>
					<polygon fill="#DC2226" points="222.681,-17.303 252.09,237.202 415,327.559 415,-85.853 					"/>
					<path fill="#F3F3F3" d="M469.352,134.23l-54.349,25.412h-57.28l-26.927,67.348l-50.085,0.93L415.003-70.833L469.352,134.23z
						 M464.099,121.435l-48.734-96.479l-39.976,94.818h39.61L464.099,121.435z"/>
					<polygon fill="#B4B4B4" points="415,-70.833 415.359,24.957 460.72,119.85 415.104,119.85 415,159.586 478.079,159.646 
						507.558,227.933 555.481,228.82 					"/>
				</g>
			</g>
		</g>
	</g>
</g>
<g>
</g>
<g>
</g>
<g>
</g>
<g>
</g>
<g>
</g>
<g>
</g>
</svg>
